# xmcd
#
# Track frame offsets:
#	150
#	19490
#	36935
#	51515
#	70520
#	84067
#	102705
#	115252
#	136982
#	153680
#	173212
#	185957
#
# Disc length: 2737 seconds
#
# Revision: 0
# Processed by: cddbd v1.4PL0 Copyright (c) Steve Scherf et al.
# Submitted via: audiograbber 1.81.01
#
DISCID=ac0aaf0c
DTITLE=Scialpi - I Grandi Successi Originali cd1
DYEAR=1900
DGENRE=pop
TTITLE0=Rockin'n'rollin'
TTITLE1=Hallo Hallo
TTITLE2=Calma
TTITLE3=Commandos
TTITLE4=Nero e blù
TTITLE5=Cigarettes and coffee
TTITLE6=L'ottovolante
TTITLE7=L'io e L'es
TTITLE8=Halleluja
TTITLE9=Mi manchi tù
TTITLE10=No high school
TTITLE11=Numero 106
EXTD=
EXTT0=
EXTT1=
EXTT2=
EXTT3=
EXTT4=
EXTT5=
EXTT6=
EXTT7=
EXTT8=
EXTT9=
EXTT10=
EXTT11=
PLAYORDER=
